<svg xmlns="http://www.w3.org/2000/svg" width="137" height="98" viewBox="0 0 137 98"><path d="M 23 88 L 23 88 L 20 76 L 20 76 L 17 64 L 13 52 L 12 42 L 11 39 L 11 39 L 11 34 L 10 29 L 10 26 L 10 23 L 10 23 L 10 20 L 10 18 L 10 17 L 10 16 L 10 15 L 10 12 L 10 11 L 10 10 L 10 10 L 12 10 L 15 10 L 15 10 L 17 10 L 17 10 L 17 10 L 19 12 L 22 16 L 24 18 L 24 18 L 26 21 L 28 25 L 28 28 L 31 37 L 31 37" stroke="#FFC114" stroke-width="50" fill="none" stroke-linecap="round" stroke-linejoin="round"/>
<path d="M 127 46 L 127 46 L 126 46 L 126 46 L 123 42 L 121 39 L 120 35 L 119 34 L 119 34 L 118 32 L 116 31 L 115 29 L 115 29 L 115 29 L 114 29 L 114 29 L 114 29 L 114 32 L 114 34 L 114 34 L 114 36 L 116 40 L 116 43 L 119 54 L 119 54" stroke="#FFC114" stroke-width="50" fill="none" stroke-linecap="round" stroke-linejoin="round"/></svg>